<?xml version="1.0" encoding="utf-8"?>
<!-- Generator: Adobe Illustrator 27.1.1, SVG Export Plug-In . SVG Version: 6.00 Build 0)  -->
<svg version="1.1" id="Layer_1" xmlns="http://www.w3.org/2000/svg" xmlns:xlink="http://www.w3.org/1999/xlink" x="0px" y="0px"
	 viewBox="0 0 18.02 24.08" style="enable-background:new 0 0 18.02 24.08;" xml:space="preserve">
<style type="text/css">
	.st0{fill:#010101;}
</style>
<g id="XMLID_00000066499090562800603370000015784837446496943774_">
	<g>
		<path id="XMLID_00000119809171518534890480000009725895170048510119_" class="st0" d="M9.7,14.79c-0.3-0.82-0.91-2.17-3-3.05H2.56
			c0.67,0.29,1.78,0.83,2.46,1.95c0,0,1.01,1.47,0.8,3.43c-0.03,0.42-0.15,1.95-1.33,3.26C4.04,20.85,3.01,22.01,0,22.42
			c1,0,3.67,0.09,5.14-0.18c1.43-0.3,2.9-0.77,4.03-2.58C9.17,19.66,10.6,17.6,9.7,14.79z"/>
		<path id="XMLID_00000109010211829085433970000005238303153322014637_" class="st0" d="M8.24,3.82C7.88,3.4,6.87,2.13,4.33,1.77
			c-0.5-0.05-1.08-0.11-2.24-0.11c-0.58,0.01-1.41,0.01-1.99,0c0.22,0.04,2.17,0.44,3.18,1.34c0,0,0,0,0,0
			c0.08,0.07,0.16,0.14,0.24,0.21C3.67,3.36,4.84,4.26,5.06,6.4c0.02,0.52,0.19,2.27-1.28,3.89c-0.31,0.31-0.55,0.56-1.12,0.86h4.17
			c0.42-0.1,0.95-0.58,1.4-1.21c0.3-0.46,1-1.41,0.99-3.05C9.21,6.05,9.28,5.29,8.24,3.82z"/>
		<path id="XMLID_00000023243178732040429270000001929217778568108691_" class="st0" d="M16.27,2.9c-0.35-0.5-1.33-1.87-3.51-2.49
			C12.46,0.31,11.4,0.03,9.77,0C9.15,0,8,0,7.17,0C7.3,0.03,9.4,0.52,10.24,1.11c0,0,0,0,0,0c0.3,0.18,0.59,0.38,0.87,0.62
			c0.52,0.52,1.91,1.76,1.87,4.44c-0.02,0.3-0.05,2.23-1.33,3.64c-0.35,0.39-0.73,0.85-1.7,1.34h4.13c0.83-0.29,2.33-1.48,2.81-3.48
			C17.03,7.11,17.58,5.08,16.27,2.9z"/>
		<path id="XMLID_00000080910954768323689750000007006768254508850830_" class="st0" d="M17.52,14.76
			c-0.21-0.43-0.89-2.13-3.21-3.02h-4.12c0.83,0.29,2.09,1.04,2.9,2.52c0.65,1.29,1.3,3.37,0.17,5.97c-0.24,0.53-0.97,1.94-2.64,2.8
			c-0.08,0.04-0.22,0.12-0.43,0.22c-0.96,0.54-2.73,0.79-2.93,0.82c1.24,0,2.49,0,2.49,0s2.65,0.01,4.24-0.68
			c1.59-0.69,3.05-1.74,3.75-4.05C17.94,18.53,18.34,16.83,17.52,14.76z"/>
	</g>
</g>
</svg>
